<svg id="Calque_1" data-name="Calque 1" xmlns="http://www.w3.org/2000/svg" xmlns:xlink="http://www.w3.org/1999/xlink" viewBox="0 0 400 100"><defs><style>.cls-1{fill:url(#Dégradé_sans_nom_170);}.cls-2{fill:url(#Dégradé_sans_nom_170-2);}.cls-3{fill:url(#Dégradé_sans_nom_170-3);}.cls-4{fill:url(#Dégradé_sans_nom_170-4);}.cls-5{fill:url(#Dégradé_sans_nom_170-5);}.cls-6{fill:url(#Dégradé_sans_nom_170-6);}.cls-7{fill:url(#Dégradé_sans_nom_170-7);}.cls-8{fill:url(#Dégradé_sans_nom_170-8);}.cls-9{fill:url(#Dégradé_sans_nom_170-9);}.cls-10{fill:url(#Dégradé_sans_nom_170-10);}.cls-11{fill:url(#Dégradé_sans_nom_170-11);}.cls-12{fill:url(#Dégradé_sans_nom_170-12);}.cls-13{fill:url(#Dégradé_sans_nom_170-13);}.cls-14{fill:url(#Dégradé_sans_nom_104);}.cls-15{fill:url(#Dégradé_sans_nom_13);}.cls-16{fill:#fff;}.cls-17{fill:url(#Dégradé_sans_nom_68);}.cls-18{fill:#0050a1;}</style><linearGradient id="Dégradé_sans_nom_170" x1="49.76" y1="86.05" x2="70.07" y2="86.05" gradientUnits="userSpaceOnUse"><stop offset="0.32" stop-color="#0050a1"/><stop offset="0.68" stop-color="#23486e"/></linearGradient><linearGradient id="Dégradé_sans_nom_170-2" x1="70.55" y1="86.05" x2="99.88" y2="86.05" xlink:href="#Dégradé_sans_nom_170"/><linearGradient id="Dégradé_sans_nom_170-3" x1="97.41" y1="86.05" x2="121.16" y2="86.05" xlink:href="#Dégradé_sans_nom_170"/><linearGradient id="Dégradé_sans_nom_170-4" x1="122.87" y1="86.05" x2="145.09" y2="86.05" xlink:href="#Dégradé_sans_nom_170"/><linearGradient id="Dégradé_sans_nom_170-5" x1="147.11" y1="86.05" x2="169.01" y2="86.05" xlink:href="#Dégradé_sans_nom_170"/><linearGradient id="Dégradé_sans_nom_170-6" x1="170.34" y1="86.05" x2="200.82" y2="86.05" xlink:href="#Dégradé_sans_nom_170"/><linearGradient id="Dégradé_sans_nom_170-7" x1="203.19" y1="86.36" x2="231.2" y2="86.36" xlink:href="#Dégradé_sans_nom_170"/><linearGradient id="Dégradé_sans_nom_170-8" x1="232.64" y1="86.05" x2="266.86" y2="86.05" xlink:href="#Dégradé_sans_nom_170"/><linearGradient id="Dégradé_sans_nom_170-9" x1="268.3" y1="86.05" x2="297.62" y2="86.05" xlink:href="#Dégradé_sans_nom_170"/><linearGradient id="Dégradé_sans_nom_170-10" x1="295.15" y1="86.05" x2="318.9" y2="86.05" xlink:href="#Dégradé_sans_nom_170"/><linearGradient id="Dégradé_sans_nom_170-11" x1="320.61" y1="86.05" x2="328.23" y2="86.05" xlink:href="#Dégradé_sans_nom_170"/><linearGradient id="Dégradé_sans_nom_170-12" x1="330.6" y1="86.05" x2="361.08" y2="86.05" xlink:href="#Dégradé_sans_nom_170"/><linearGradient id="Dégradé_sans_nom_170-13" x1="363.45" y1="86.05" x2="391" y2="86.05" xlink:href="#Dégradé_sans_nom_170"/><linearGradient id="Dégradé_sans_nom_104" x1="11.11" y1="50.6" x2="115.13" y2="50.6" gradientUnits="userSpaceOnUse"><stop offset="0.44" stop-color="#0050a1"/><stop offset="0.7" stop-color="#23486e"/></linearGradient><linearGradient id="Dégradé_sans_nom_13" x1="21.31" y1="73.01" x2="98.67" y2="55.36" gradientTransform="translate(11.68 -43.05) rotate(14.05)" gradientUnits="userSpaceOnUse"><stop offset="0.53" stop-color="#0050a1"/><stop offset="0.89" stop-color="#23486e"/></linearGradient><linearGradient id="Dégradé_sans_nom_68" x1="26.47" y1="29.68" x2="89.07" y2="29.68" gradientUnits="userSpaceOnUse"><stop offset="0.44" stop-color="#0050a1"/><stop offset="0.8" stop-color="#23486e"/></linearGradient></defs><title>logo plateformation 400-100 V2</title><path class="cls-1" d="M49.76,96.85V75.26h7.65V91H70.07v5.82Z"/><path class="cls-2" d="M70.55,96.85,80.93,75.26h8.86L99.88,96.85H92l-1.6-3.74H80.06l-1.57,3.74Zm11-8.17h7.41l-3.65-8.57h0Z"/><path class="cls-3" d="M105.46,96.85v-16h-8V75.26h23.75v5.58h-8v16Z"/><path class="cls-4" d="M122.87,96.85V75.26H144.8v4.88H130.28v3.62h13.36V88H130.28v4h14.81v4.89Z"/><path class="cls-5" d="M147.11,96.85V75.26H169v5.58H154.76v3.92h12.51v4.52H154.76v7.57Z"/><path class="cls-6" d="M170.34,86.05c0-7,6.08-11.54,15.24-11.54s15.24,4.58,15.24,11.54S194.73,97.6,185.58,97.6,170.34,93,170.34,86.05Zm22.8,0c0-3.58-3-6-7.56-6s-7.59,2.39-7.59,6,3,6,7.59,6S193.14,89.64,193.14,86.05Z"/><path class="cls-7" d="M219.9,93.71l-1.21-2.08a4.13,4.13,0,0,0-3.57-1.93h-4.29v7.15h-7.64V75.26h17.49c5.57,0,8.78,2.5,8.78,6.84,0,3.26-2.23,5.52-6,6.27v0A4,4,0,0,1,225.26,90l1.42,2.23a2,2,0,0,0,1.77,1,2.2,2.2,0,0,0,1.54-.66l1.21,3.19a8.93,8.93,0,0,1-5.3,1.69C222.71,97.45,221.12,95.52,219.9,93.71Zm-9.07-8.44h7.51c2.17,0,3.45-1,3.45-2.68s-1.28-2.66-3.42-2.66h-7.54Z"/><path class="cls-8" d="M232.64,96.85V75.26h9.85l7.22,14.56h.06l7.09-14.56h10V96.85h-7.22V83.37h-.05L253.1,96.85h-6.46L239.91,83.4h0V96.85Z"/><path class="cls-9" d="M268.3,96.85l10.37-21.59h8.86l10.09,21.59h-7.91l-1.59-3.74H277.8l-1.56,3.74Zm10.95-8.17h7.42L283,80.11H283Z"/><path class="cls-10" d="M303.2,96.85v-16h-8.05V75.26H318.9v5.58h-8v16Z"/><path class="cls-11" d="M320.61,96.85V75.26h7.62V96.85Z"/><path class="cls-12" d="M330.6,86.05c0-7,6.09-11.54,15.24-11.54s15.24,4.58,15.24,11.54S355,97.6,345.84,97.6,330.6,93,330.6,86.05Zm22.8,0c0-3.58-3-6-7.56-6s-7.59,2.39-7.59,6,3,6,7.59,6S353.4,89.64,353.4,86.05Z"/><path class="cls-13" d="M363.45,96.85V75.26h9.18l11.13,14h0v-14H391V96.85h-9.18l-11.13-14.2h0v14.2Z"/><path class="cls-14" d="M11.11,97V4.17H78.67c23.45,0,36.46,11.67,36.46,32.55,0,20.37-13.12,31.65-36.69,31.65H41.75V97ZM41.75,49.31H68.34c10.33,0,16-4.67,16-13.1s-5.69-13-16-13H41.75Z"/><ellipse class="cls-15" cx="54.3" cy="33.77" rx="39.68" ry="28.29" transform="translate(-0.69 1.14) rotate(-1.19)"/><path class="cls-16" d="M45,26H75.29a6.09,6.09,0,0,1,6.09,6.09V44.77a6.48,6.48,0,0,1-6.48,6.48H46a6.48,6.48,0,0,1-6.48-6.48V31.47A5.49,5.49,0,0,1,45,26Z" transform="translate(-7.56 15.83) rotate(-14.05)"/><path class="cls-17" d="M88.66,21.6l-25.85,17a5.56,5.56,0,0,1-2.71.75l-32.89-.77c-.84,0-1-.38-.33-.82l25.85-17A5.56,5.56,0,0,1,55.44,20l32.89.77C89.17,20.81,89.32,21.17,88.66,21.6Z"/><path class="cls-16" d="M87.87,18.46,62,35.44a5.49,5.49,0,0,1-2.72.75l-32.89-.76c-.84,0-1-.39-.32-.82l25.84-17a5.55,5.55,0,0,1,2.71-.74l32.9.76C88.38,17.66,88.53,18,87.87,18.46Z"/><rect class="cls-16" x="31.36" y="34.28" width="2.02" height="17.98" transform="translate(-0.89 0.68) rotate(-1.19)"/><polygon class="cls-18" points="35.42 52.93 32.62 55.38 29.72 53.05 32.52 50.61 35.42 52.93"/><ellipse class="cls-16" cx="62.66" cy="47.4" rx="20.92" ry="6.06" transform="translate(-9.63 16.62) rotate(-14.05)"/><rect class="cls-16" x="40.89" y="40.62" width="41.84" height="6.79" transform="translate(-8.83 16.32) rotate(-14.05)"/></svg>